<?xml version="1.0" encoding="UTF-8"?><svg id="grLogo" xmlns="http://www.w3.org/2000/svg" viewBox="0 0 256 256"><path id="logo" d="M10.12,147.63l.71,2.38-.94-2.68.23.3ZM15.91,156.63c1.1-.87,2.14-1.83,3.09-2.6.38-.31.74-.6,1.08-.88.31-.25.61-.47.89-.66-.43.13-.96.45-1.53.89-.25.18-.7.56-1.1.9-.41.36-.85.74-1.3,1.13-.45.4-.92.8-1.39,1.17-.47.34-.92.59-1.33.8-.21.11-.4.19-.6.26l-.29.11c-.09.04-.19.08-.32.03-.26-.1-.28-.32-.4-.49-.09-.19-.19-.37-.28-.54-.06-.2-.1-.4-.13-.64-.3-.25-.66-.53-.96-1,.16.66.41,1.18.66,1.64.27.42.55.8.86,1.19.3.21.54,0,.77-.05.23-.07.47-.17.71-.29.49-.24,1.03-.51,1.58-.95ZM27.45,149.05c.18-.11.24-.14.35-.2.29-.24.7-.58,1.39-1.13-.62.15,1.42-1.47-1.75,1.32ZM27.8,148.85c-1.42,1.19,1.08-.59,0,0h0ZM34.31,143.29l-1.73,1.74c.5-.2,2.2-1.55,1.65-.94,1.85-1.7,1.35-1.49.07-.8ZM34.85,142.3c.21-.09.49-.28.91-.89l-.91.89ZM33.95,143.15c.03-.3-.25.19-1.03,1.03l1.93-1.88c-.35.14-.52-.02-.9.84ZM31.68,145.06c-1.16.75-2.59,1.8-.85.05-3.54,3.04-2.69,2.99.85-.05ZM21.19,151.35l-1.55,1-.54.59c-.17.19-.37.41-.6.65.39-.39,1.03-.86,1.66-1.33.62-.46,1.14-.86,1.02-.91ZM46.24,133.79c.02-.21-.89.22-1.16.19l-1.27,1.29c.78-.52,2.19-1.58,2.43-1.49ZM45.08,133.98c.63-.65,1.28-1.28,1.89-1.95-1.85,1.56-2.12,1.91-1.89,1.95ZM35.59,140.53l-3.07,3.24,3.72-3.8-.65.56ZM53.12,128.28l1.71-2.2-.78.93-.92,1.28ZM63.14,118.96c-1.04,1.12-2.27,2.2-3.99,3.45-.65.99,1.49-.69.71.26,1.35-1.3,2.36-2.57,3.27-3.71ZM63.14,118.96c.55-.6,1.08-1.21,1.56-1.87-.52.57-1.01,1.19-1.56,1.87ZM52.38,127.98l-1.08.38c-.25.21-.52.45-.81.7.22-.07.68-.15,1.89-1.08ZM51.26,128.37h.04c.88-.77,1.48-1.29,1.74-1.51-.22.19-.76.65-1.78,1.51ZM50.29,129.23c.07-.06.13-.11.2-.18-.1.04-.16.07-.2.18ZM42.01,134.53c-.68.95.86-.07-.74,1.74,1.06-1.2,3.43-3.52.74-1.74ZM46.72,131.51c.12.05.61-.17.1.44l2.13-2.26-2.22,1.82ZM49.91,128.66l-.97,1.03.82-.67.14-.35ZM60.78,120.13c.79-.98,1.79-1.91,2.9-2.97-1.27,1.05-2.56,2.17-3.76,3.26-.08.25-.44.91.85-.29ZM56.15,124.15c.06-.06.14-.14.19-.2-.15.08-.26.17-.19.2ZM74.61,106.76c-.08.04-.15.07-.23.11,0,.03.01.06.01.09l.22-.2ZM59.67,120.55c-.97.77-1.45,1.35-1.88,1.93.66-.66,1.36-1.34,2.14-2.05.03-.11.02-.16-.26.13ZM67.63,114.05c-.53.38-1.1.83-1.71,1.31.55-.34,1.62-1.07,1.71-1.31ZM56.73,123.76s-.08.09-.13.14c.36-.2.3-.2.13-.14ZM56.73,123.76c.44-.47.75-.87,1.05-1.28-.53.54-1.03,1.02-1.44,1.47.14-.08.28-.14.39-.19ZM70.46,110.58l-.81.84c1.01-.87,1.81-1.42,3.29-2.41,1.27-1.48,1.46-1.87,1.46-2.06l-4.19,3.94.25-.32ZM66.56,112.88c-2.45,2.39-1.48,1.93-2.86,3.45,3.99-3.84-.99,1.27,2.1-1.29-.72.81-1.46,1.47-2.12,2.12.78-.63,1.53-1.23,2.24-1.8-.04.03-.07.05-.11.07l-.02.02h0c-.21.12-.29.15-.07-.02.01-.02.06-.06.08-.09-.01-.07.02-.18.07-.29,1.22-1.04.26-.09-.07.29,0,.03-.02.07,0,.09h.02s3.83-4.01,3.83-4.01c-.89.77-1.94,1.79-3.78,3.63.36-.94,2.26-3.02.7-2.17ZM43.67,131.93c.16-.08.17-.05.2-.04.24-.27.32-.38-.2.04ZM48.1,129.7c.06-.01.13-.03.19-.04.05-.07-.03-.05-.19.04ZM43.99,132.47l.26-.3c1.42-1.03,3.24-2.17,3.85-2.47-.66.13-1.28.33-2.52.95-.26.31-.4.66-1.43,1.47-.95.63-.13-.16-.27-.23-.53.59-1.91,2.01.12.58ZM59.11,119.53l-1.98,1.31.24.09c-2,1.7-1.41,1.51-1.53,1.86,1.12-1.05,2.19-2.17,3.28-3.25ZM75.14,106.55l-.12.75,1.48-2.31-1.35,1.56ZM79.49,102.71l.95-1.3-1.07.86.12.44ZM169.29,134.29c1.13,1.67,2.28,3.65,2.43,3.17l-.12-.74c-1.03-.93-1.74-1.72-2.3-2.42ZM113.52,68.97c.89,1.46,1.65,2.59,2.35,3.56-1.04-1.79-1.74-3.34-2.35-3.56ZM239.01,81.72c-.4-.75-.62-1.04-.7-.98.41.77.67,1.19.7.98ZM118.84,76.46c-.15-.26-.3-.52-.46-.78-.81-.95-1.61-1.92-2.5-3.15.77,1.32,1.72,2.78,2.97,3.94ZM9.55,108.88c-.09.42-.2,1.12-.32,2.34.06-.56.2-1.48.32-2.34ZM96.11,84.7c-.82,1-.1.19,0,0h0ZM90.68,88.2c.15-.23.24-.42.19-.52,0,.15-.06.32-.19.52ZM95.87,84.87c-.2.18-.55.53-1.17,1.16.36-.33.75-.72,1.17-1.16ZM95.02,85.97c-.3.32-.54.58-.77.82-.05.17.08.09.77-.82ZM97.25,83.31c-.47.57-.93,1.08-1.38,1.56.19-.17.27-.24.24-.18.24-.29.58-.7,1.14-1.38ZM247.43,128.31c-.33,3.6-.44,4.39-.39,5.17,0,.77.07,1.62-.49,5.23l-.07-.1c-.17,3.17-.99,4.84-.45,6.49l.26-1.08c-.51,3.96-.64,4.3-1.45,8.26-.02.48-.32,2.43-.62,2.94.29.16-.17,2.48-.87,4.95-.69,2.47-1.64,5.08-1.95,5.92.92-3.09.18-1.72-.35-.94-.1,1.95-.48,3.22-1.76,5.54.59.63,1.28,1.46-.77,6.28.22-.79.66-1.98.3-1.57-.36.42-.68,1.6-.8,2-.36.41.21-1.17-.28-.75-.37,1.76-1.01,3.15-1.81,4.67-.52.96-1.08,1.98-1.69,3.11-.36.72-.82,1.31-1.25,2.02-.26.22-.52.45-.79.69-.28.22-.51.57-.97.56.56-.07.65-.43.73-.52.06-.12,0-.14-.1-.11-.12.03-.24.14-.51.13-.26,0-.45-.17-.62-.28-.08.19-.57.21-1.31-.21-.75-.43-1.66-1.29-2.42-1.99-.33-.31-.65-.6-.92-.85-.22-.2-.4-.36-.54-.46-.28-.2-.39-.14-.19.39-1.84-1.66-3.98-3.45-6.21-5.25-2.22-1.81-4.56-3.59-6.63-5.39-4.19-3.54-7.82-6.6-8.98-8.18-.56-.93-2.96-2.34-4.26-3.46l.44-.14c-4.07-2.64-3-2.24-7.62-5.54,2.03,1.24,1.46.42,0-1.45l-3.39-2.02-.13-.96c-1.32-.89-2.55-2.15-3.73-3.45-1.57-.6-5.83-4.81-6.8-5.23-.66-1.8-3.41-3.14-3.76-4.6-.48-.32-1.06-.78-1.68-1.29.33.85.26,1.36-.71.12-.1-.09-.17-.16-.27-.25l-.14-.82c-1.2-1.05-2.38-2.17-3.13-2.92.31.37.64.83.97,1.32-.42-.55-.81-1.05-1.18-1.54-.15-.16-.3-.31-.4-.41.08.06.17.14.26.23-.6-.77-1.27-1.53-2.36-2.4-3.3-4.55-9.27-8.31-12.64-13.56.54.75,1.39,1.74,1.75,1.89-3.53-3.74-6.37-8.03-8.79-10.22l-.18.47c-1.31-1.35-2.48-2.55-3.58-3.69-1.07-1.16-2.05-2.28-3.02-3.45l-.49.2c-1.35-1.74-3.71-4.29-5.85-6.75-2.17-2.43-3.97-4.9-4.43-6.27-.99-.59-3.72-4.84-5.4-6.71l-.09-.74c-1.97-2.61-3.23-4.18-4.51-5.66-1.6-2.77-3.42-5.22-5.27-7.54-.93-1.15-1.85-2.28-2.76-3.4-.07-.08-.13-.16-.19-.24-.44.96-.9,1.91-1.39,2.84.48-1.56-.37,1.17-1.45,2.66-.86,1.74-2.76,4.27-4.3,5.89-.76,1.01-1.54,2.01-2.32,3,2.37-3.49-.62-.1-1.13-.2l-1.23,2.1c-.78.62.71-1.43-.49-.11-.82,1.41-3.91,5.03-4.57,6.43.25-.09.71-.46,1.25-.94.11-.17.11-.16.05-.04.05-.04.08-.07.13-.11-.06.06-.08.08-.14.14-.1.18-.26.47-.3.61-2.09,2.16-1.22,1.46-.99,1.52-2.83,2.04-3.76,3.75-6.12,5.1,1.53-.98.21.45-1.22,2.01-1.47,1.51-3.09,3.12-2,2.65-2.28,1.31-1.24,1.21-2.81,1.94,2.64-2.39,4.67-5.36,6.35-7.7l-2.21,1.77c.65-1.89,4.48-4.43,5.42-5.84-.62.95-2.48,2.69-2.67,2.63l.96-.14c1.45-1.39,2.63-2.76,3.65-4.06,1.02-1.31,1.85-2.59,2.65-3.78-1.88,1.92,1.81-2.73.23-1.52l-1.31,1.66c-.24.18-.29.14-.23-.02-.67.78-1.34,1.57-2.02,2.34-2.58,2.92-5.21,5.78-7.91,8.59-.47.49-.95.98-1.43,1.47l1.1-1-.47,1.05-.81.14c-1.33,1.38-2.68,2.75-4.03,4.12-.14.89-3.17,4.28-1.93,3.63-1.43,1.15-1.2.41-3.77,3.16-1.48,1.91,2.55-1.54,3.41-2.08-1.88,2.13-1.77,2.25-1.71,2.43-2.18,1.11-4.31,1.42-2.79-.5-.95.92-1.91,1.83-2.86,2.74.7-.53,0,.32-1.05,1.35l-.23-.09c.09-.11.19-.21.3-.32-1.35,1.29-2.69,2.6-4.05,3.88-2.58,2.44-5.21,4.83-7.86,7.18-3.65,3.25-7.31,6.48-11.02,9.65-3.56,3.05-7.18,6.05-10.79,9.05-4.26,3.53-8.54,7.03-12.82,10.54-2.27,1.87-4.54,3.73-6.82,5.59-.21.17-.42.33-.65.47-.15.09-.31,0-.36-.16-.12-.4-.23-.8-.32-1.21-.7-3.09-1.31-6.19-1.8-9.31-.23-1.51-.35-3.03-.56-4.54-.31-2.19-.36-4.41-.6-6.6-.03-.26-.02-.53-.03-.8-.03-1.98-.06-3.97-.09-5.95.02,0,.05,0,.07,0,0-1.57-.01-3.13,0-4.7,0-.78.05-1.56.11-2.34-.06.14-.11.28-.16.41-.53,1.33-.95,2.44-1.28.87,0,.8.05,1.56.09,2.31-.16-.19-.24-.72-.28-1.46-.03-.76.02-1.7.09-2.64.15-1.87.29-3.71.05-4.42l.72-3.57.86-3.53c-.27.19-.44-1.05-.69.09.25-1.78.48-3.33-.23-1.06,2.2-8.43,4.65-16.79,7.84-24.9,3.2-8.09,7.23-15.88,12.41-22.62.61-.97.05-.56-.32-.28,2.29-2.21,1.47-2.63,2.42-4.07,1.15-1.05,2.32-2.08,3.51-3.08.97-1.6-.15-.65-.21-.87,5.39-6.89,12.11-12.14,17.21-16.95,1.94-1.16.03.87,2.39-.87-1.84.89-.25-.55,1.57-2.01,1.82-1.46,3.87-2.92,2.63-2.45,1.45-.44,3.67-1.88,5.53-2.93,1.86-1.06,3.33-1.74,3.11-.84,3.06-1.7,2.23-1.94,1.29-1.55,3.57-1.99,6.51-3.45,9.38-5.24,1.08-.33,5.31-2.33,9.9-3.93,4.57-1.64,9.47-2.84,11.35-2.78-2.56-.02.1-.4,2.36-1.2l-2.24-.07c1.76-.41,3.52-.78,5.3-1.11,1.08-.27,1.39-.3,1.39-.24.91-.13-.16.35,2.17.11,3.67-.5,3.76-.81,5.72-1.39h-.56c.82-.15,1.63-.25,2.43-.33.9-.06-.67.2-1.73.51-1.06.35-1.61.57,1.34.4.03-.08.89-.39,1.94-.64.49-.12,1.18-.27,1.75-.32.59-.06,1.12-.05,1.53.04-1.55.04-2.29.23-2.42.36-.14.14.28.23.87.27,1.48-.1,2.89-.08,4.22-.17l-1.37-.65c12.34-.69,25.12,1.26,37.76,4.63-.17.29,2.06.9,4.13,1.61,2.07.7,3.99,1.48,3.27,1.72l-.44-.25c-3.05-.93.65.97,3.09,1.8-2.44-1.24,4.9.85-1.25-1.62,1.66.44,3.31.93,4.95,1.44,1.68-.32,4.78,1.25,8.39,3.14,3.6,1.93,7.46,4.59,10.91,6.46-.5-.24-.68-.24-.76-.22,3.09,1.61,6.23,3.97,8.69,6.06,2.47,2.09,4.28,3.9,4.98,4.31l.14.78c2.47,1.65,3.82,2.64,5.17,3.83,1.34,1.2,2.7,2.61,4.99,5.3-.12-.01-.78-.51-.1.38,1.4,1.02,2.88,2.01,5.84,5.86l-.25-.06c1.6,1.96,3.14,3.96,4.61,6.02-.64.42,1.42,2.92,3.46,5.81,2.06,2.87,4.07,6.16,3.86,7.56.54.55,1.48,2.04,2.4,3.68.92,1.64,1.81,3.44,2.4,4.53-.05.04-.06.21.04.62,1.93,2.37,2.83,7.92,3.84,10.95.8,1.95.79,1.01.77.05.31,2.09,1.27,4.8,2.08,7.23.83,2.42,1.53,4.56,1.54,5.34.5,3.04-.37,1.23-.55,2.12.45,2.22.75,1.99,1,1.95.25-.04.44.14.52,3.2-.15-.69-.37-1.98-.4-1.47.08,1.16-.18,2.83-.39,4.47-.16,1.64-.48,3.27-.21,4.39l.17-1.54c.32,2.06.24,4.6.05,6.66-.18,2.05-.36,3.64.16,3.98l.48-.39ZM109.83,62.17s.14-.16.34-.38c-.1.11-.22.24-.34.38ZM110.43,61.51l-.02.02h0s0-.01,0-.01c0,0,0,0,0,0ZM110.38,61.55l-.07.06s.04-.03.05-.04l.02-.02ZM110.27,61.65l-.21.15.03-.02c.08-.06.14-.1.18-.13ZM110.71,61.28s-.02-.03-.04-.05c-.38-.35-.49-.97-1.09-1.1-.38.35-.47.87-.68,1.31,0,.02-.02.04-.03.06.16-.13.27-.23.34-.31.27-.27.19-.3.16-.12h.16s.04.06.07.1c.27.31-.12,0-.22.11-.03.03-.05.06-.02.16.03.08.07.22.24.46.02-.04.03-.07.05-.1.12-.29.2-.54.28-.73h.51s.07.08.27.2ZM106.58,10.05l-.86.03c-.5.24-1,.46.86-.03ZM74.77,103.47c.23-.26.43-.51.6-.74-.12.12-.23.24-.35.35-1.02.99-2.06,1.97-3.09,2.96,1.08-.79,2.1-1.74,2.84-2.57ZM76.2,101.9s-.08.08-.12.12c0,0,0,.02,0,.02l.12-.14ZM104.57,73.26s-.02.06-.04.1c.92-1.15,1.41-1.73.04-.1ZM109.07,63.16s-.04-.05-.06-.08c-.31.34-.43.47,0,0-.04-.06-.11-.14-.17-.23-.18-.19-.31-.35-.4-.48-.46.92-.93,1.83-1.43,2.73.35-.55.64-.98.85-1.24-.76,1.14-1.91,3.37-2.4,4.48.63-.84,1.24-1.7,1.83-2.57-1.27,2.24-2.78,3.67-4.79,6.84.69-.3-.5,2.26,1.63.22,2.1-2.52,2.76-3.97,3.32-5.38.44-1.18.82-2.35,1.63-4.28ZM116.93,69.69c-1.92-2.55-3.81-5.11-5.69-7.69-.05.13-.1.29-.18.46-.12.3-.26.58-.39.88.1.12.19.23.3.37,2.36,2.73,4.51,4.87,5.96,5.98ZM131.06,87.75c-.72-.89-1.45-1.77-2.16-2.66.09.3.16.62-.01.6.63.69,1.42,1.42,2.17,2.06ZM145.74,105.17c-.61-.7-1.22-1.39-1.83-2.1-.36-.42-.72-.85-1.08-1.27l-.92.08.51-.56c-.97-1.14-1.95-2.27-2.91-3.41,0,.1.03.24.13.45.67,1.38,4.26,6.7,4.56,7.05.55.27,1.11.14,1.55-.25ZM165.07,126.41c-1.56-1.64-3.12-3.29-4.66-4.95-1.86-1.18-3.54-2.21-4.53-2.77l3.05,2.78.46.97c1.86,1.66,3.88,2.97,5.67,3.97ZM185.14,148.04c-.09,0-.2-.03-.32-.08.56.53.29.19.32.08ZM195.3,156.06c-.77-.7-1.53-1.4-2.29-2.1-.1.36-.22.67-.57.65l2.86,1.45ZM240.68,164.6c-.23.45-.62,1.08-1.07,1.81-.05.15-.09.3-.15.44-.06.18-.14.36-.2.54-.09.45-.17.88-.25,1.27,0-.21.02-.43.03-.67-.29.81-.59,1.61-.9,2.41.12.07.33-.14.69-.82.05-.26.11-.59.18-.93-.03.88-.02,1.44.3.9.49-1.64.95-3.29,1.37-4.95ZM109.41,60.93s.02-.01.13.15h.4c.07-.17.13-.3.2-.34l-.72.2ZM89.14,92.54c-.89,1-1.29,1.28-1.81,1.73.11.03.47-.17.2.18l1.61-1.91ZM87.54,94.45l-.18.22c.08-.09.14-.16.18-.22ZM84.44,95.43c-.45-.13-1.56,1.2-2.86,2.63l.24-.24c0,.8,1.32-.8,2.62-2.38ZM81.27,98.39c-.4.44-.82.88-1.25,1.28,0,.32.54-.48,1.25-1.28ZM98.13,82.32c-.24,1.14,3.4-5.19.43-1.08-.66.65.03.78-.43,1.08ZM92.99,84.71c-.7.75-1.44,1.47-2.17,2.19.09.02-.13.34-.43.72,1.31-1.37,2.77-2.86,2.6-2.91ZM90.39,87.62c-.68.72-1.31,1.42-1.62,1.88.36-.4,1.13-1.26,1.62-1.88ZM111.35,62.92l2.14,2.6c.34.17-.12-.62-.93-1.58-.58-.57-1.38-1.53-1.21-1.02ZM7.72,120.61c-.14.87-.26,1.81-.33,2.71.11-.57.25-1.19.39-1.75l-.07-.96ZM8.29,127.84c-.01-.24-.03-.59-.03-.93l1.71-1.74c.03-.09,0-.18.07-.22-.03,0-.05,0-.07,0l-3.08.19.2,2.74c.13,1.81.57.78.47.83.01-.66-.12-.8-.25-.83l.72-.74.26.7ZM225.73,193.17c-.32-.17-.43-.19-.49-.19-.07.03-.17.05-.18.11-.03.12.02.25.05.2.21.1.73.4,1.02.67.31.27.46.45.56.51.2.14.21-.11.39.16-.4-.83-1.06-1.3-1.35-1.45ZM212.17,187.63l1.54.56.27-.04-1.81-.52ZM209.17,186.03l1.1-.05c-2.25-1.14-5.32-2.39-6.78-3.42.61,1.15,3.76,1.94,5.46,3.16l.22.31ZM200.17,178.81c-.1-.1-.13-.14-.19-.2-.22-.13-.51-.31-1-.63.18.44-1.27-.5,1.19.83ZM199.98,178.62c1.05.62-.56-.62,0,0h0ZM195.08,175.79l1.5.63c-.2-.32-1.4-1.1-.89-.92-1.48-.75-1.28-.43-.62.29ZM193.51,175.43l.77.35c-.09-.14-.26-.27-.77-.35ZM195.01,176.14c-.23.1.17.11.89.38l-1.63-.74c.14.22.04.43.74.36ZM196.7,177.14c.69.61,1.64,1.31.13.67,2.69,1.54,2.55.87-.13-.67ZM202.61,182.89c.31.28.63.53.95.79l1.04.3c-.52-.15-1.95-1.3-1.99-1.09ZM186.72,170.21c-.17.07.24.62.24.85l1.11.48c-.47-.41-1.4-1.1-1.35-1.33ZM186.96,171.06c-.55-.24-1.11-.47-1.65-.73,1.32.89,1.65.92,1.65.73ZM192.84,175.95l2.79,1.07-3.28-1.36.49.29ZM181.04,166.46l1.04.27-1.79-.56.76.29ZM177.45,163.29c-1.04-.65-2.04-1.04-2.95-1.39.89.47,1.75,1.1,2.76,2.08.78.18-.57-.98.19-.69ZM174.5,161.9c-.48-.25-.96-.47-1.49-.64.45.23.95.43,1.49.64ZM181.87,167.46l.35.74c.18.12.38.26.58.39-.06-.15-.15-.5-.93-1.14ZM182.23,168.23v-.02c-.64-.43-1.08-.73-1.26-.86.16.11.54.38,1.26.88ZM182.95,168.69c-.05-.04-.09-.06-.15-.1.03.07.06.11.15.1ZM187.64,173.3c.8.15-.12-.66,1.42-.14-1.02-.35-3.03-1.28-1.42.14ZM184.92,170.74c.03-.11-.17-.44.33-.26l-1.87-.87,1.54,1.12ZM182.53,169.22l.85.4-.57-.42-.28.02ZM175.45,163.44c-.78-.31-1.53-.81-2.37-1.36.84.69,1.74,1.37,2.62,1.97.2-.03.72.04-.24-.6ZM178.72,165.81c-.05-.03-.12-.06-.16-.08.07.09.14.15.16.08ZM164.97,156.29c.03.05.05.1.08.16.02-.01.05-.03.07-.04l-.16-.12ZM175.8,164.22c.63.53,1.09.72,1.55.87-.53-.31-1.08-.65-1.65-1.04-.09.01-.12.04.1.17ZM170.63,159.83c.29.32.64.66,1.02,1.01-.26-.35-.83-1.01-1.02-1.01ZM178.39,165.48s.07.03.11.05c-.17-.22-.17-.17-.11-.05ZM178.39,165.48c-.38-.18-.71-.28-1.04-.39.43.25.84.47,1.2.64-.07-.08-.12-.18-.16-.25ZM167.92,158.57l.66.41c-.67-.57-1.09-1.06-1.85-2-1.15-.59-1.45-.64-1.6-.58l3.04,2.27-.25-.11ZM169.7,161.11c1.87,1.28,1.51.62,2.72,1.25-3.06-2.01,1,.41-1.02-1.31.63.35,1.17.7,1.68,1.04-.51-.42-.99-.83-1.43-1.24.02.03.04.05.05.07h.01s0,.01,0,.01c.1.13.12.19,0,.06-.01,0-.05-.03-.07-.04-.05.03-.14.04-.23.04-.81-.68-.07-.19.23-.04.02-.01.06-.01.07-.03,0,0,0,0,0-.01l-3.12-1.92c.6.5,1.39,1.05,2.82,2-.74,0-2.36-.92-1.7.12ZM185.47,173.05c-.08-.09-.06-.11-.05-.15-.23-.08-.33-.1.05.15ZM183.44,170.31c.14.5.33.94.89,1.72.26.1.53.08,1.25.57.57.5-.11.17-.16.31.51.18,1.73.7.44-.34l-.25-.09c-.94-.71-1.93-1.8-2.17-2.18ZM183.44,170.31s-.03-.09-.04-.14c-.05-.02-.02.04.04.14ZM176.09,166.23l.06-.23c1.39,1.05,1.23.61,1.51.59l-2.64-1.55,1.07,1.19ZM163.61,155.25l1.2.65.59-.13-1.8-.52ZM160.99,152.92l.62.67.35-.23-.97-.44ZM79.39,126.28l.57.16c.74-.54,1.37-.86,1.92-1.08-1.31.36-2.86.62-2.49.92ZM130.06,128.09c-.73-.87-1.36-1.52-1.94-2.06.85,1.09,1.43,2.09,1.94,2.06ZM36.08,205.55c.42.38.64.5.71.43-.43-.39-.7-.59-.71-.43ZM125.72,123.83c.12.17.25.31.37.48.66.5,1.3,1.02,2.03,1.71-.62-.81-1.38-1.67-2.4-2.19ZM218.29,206.96c.21-.19.52-.55,1-1.21-.22.3-.62.77-1,1.21ZM149.13,143.71c.68.49.14.04,0,0h0ZM150.89,147.51c.12-.04.25-.02.4.04-.17-.07-.32-.11-.4-.04ZM149.24,143.88c.12.13.35.36.77.76-.22-.23-.47-.49-.77-.76ZM150,144.37c.22.19.39.34.55.48.13,0,.08-.08-.55-.48ZM149.13,143.71c-.19-.15-.47-.37-.92-.72.38.3.71.6,1.03.89-.11-.12-.15-.18-.11-.17ZM221.29,203.36c-1.18,1.11-2.38,2.2-3.6,3.26.28.04.02.87.59.34-.78.9-1.45,1.7-.15.76-4.43,3.78-8.56,7.83-12.94,11.64-4.36,3.81-8.98,7.36-14,9.99-.62.45-.13.41.2.38-2.09.58-1.53,1.32-2.47,1.98-1.03.27-2.06.52-3.08.76-.96.83.02.6.03.79-5.01,2.97-10.5,4.5-14.66,6.66-1.5.24.08-.78-1.79-.19,1.4-.04.11.57-1.33,1.16-1.44.59-3.02,1.15-2.11,1.18-2.1-.28-6.84,1.85-6.38.32-2.27.53-1.72,1.05-1.04.99-2.64.64-4.77,1.12-6.87,1.98-.76.03-3.83.57-7.03,1.08-3.2.44-6.53.59-7.77.24,1.69.46-.09.41-1.67.72.49.17.99.35,1.48.5l-3.61.11c-.73.09-.94.07-.94.02-.6,0,.14-.34-1.37-.42-2.41.09-2.63.4-4.02.65l.37.1h-1.65c-1.22-.07,4.34-.42.37-.86-.06.16-2.43.83-3.47.38,2.02.11,1.79-.31,1.05-.5l-2.83-.15.89.77c-2.03-.11-4.09-.4-6.16-.63-2.07-.21-4.15-.57-6.24-.97-4.17-.79-8.36-1.81-12.58-2.94.14-.29-1.34-.7-2.72-1.17-1.38-.46-2.66-.97-2.14-1.29l.29.19c2.05.54-.37-.88-2.02-1.34,1.62.87-3.38-.15.75,1.39-1.13-.21-2.25-.45-3.38-.7-1.2.53-3.36-.31-5.79-1.54-2.43-1.22-5.11-2.84-7.56-3.76.36.1.49.06.55.03-4.43-1.53-8.84-5.42-9.87-5.76l-.08-.64c-3.71-1.49-4.18-1.7-7.8-4.71.1-.03.62.18.08-.34-1.12-.39-2.27-.76-4.72-2.87l.2-.04c-1.32-1.04-2.62-2.11-3.9-3.21.52-.56-1.25-1.8-3.08-3.3-1.85-1.47-3.82-3.13-3.71-4.26-1.01-.4-3.59-3.03-4.81-4.15.04-.05.03-.17-.09-.43-1.9-.94-3.36-4.48-4.69-6.14-.99-1.01-.84-.37-.69.28-1.15-2.59-4.99-5.88-5.3-6.92-1.04-1.76.09-.96.08-1.61-1.69-2.5-.94,1.17-2.49-2.64.29.38.79,1.1.69.76-.7-1.41-.51-4.66-1.52-5.84l.23,1.02c-1.71-2.29-1.87-6.45-2.98-6.41l-.32.44c-.73-2.33-.96-2.78-1.22-3.24-.25-.46-.54-.91-1.19-3.29l.1.03c-.87-1.95-.7-3.24-1.77-3.96l.15.73c-.23-.62-.41-1.1-.56-1.51-.07-.21-.14-.41-.21-.59-.08-.23-.15-.45-.22-.67-.26-.86-.66-1.89-.8-3.41-.02-.1-.07-.26-.05-.46.01-.22.19-.43.37-.54.46-.22.96-.44,1.24-.48-.08-.12.32-.4,1.03-.79.37-.18.74-.42,1.27-.61.37-.14.77-.29,1.17-.44,1.57-.56,3.27-1.16,3.82-1.35-1.91.87-.89.75-.24.77.95-.95,1.72-1.32,3.44-1.64-.09-.84-.1-1.73,2.95-3.14-.43.32-1.15.71-.78.73.38.01,1.02-.47,1.24-.63.37.01-.56.57-.11.67,1.76-1.63,3.56-1.67,6.42-3.35-.84.67.04.42.5.5-.16-.91,4.42-1.3,2.77-1.79,6.16-2.21,14.6-7.7,17.19-8.24.76-.04,2.09-1.38,3.08-1.94l.06.42c2.43-2.16,2.04-1.42,4.95-3.85-1.12,1.15-.45,1.03,1.1.61.62-.64,1.21-1.32,1.81-2l.73.27c.78-.75,1.82-1.26,2.86-1.78.55-1.11,3.97-3.1,4.35-3.76,1.41.12,2.52-1.76,3.64-1.53.26-.29.63-.63,1.04-.97-.66-.03-1.04-.27-.07-.65.07-.05.13-.09.2-.14l.63.18c.84-.64,1.73-1.24,2.33-1.61-.3.13-.66.24-1.04.35.42-.17.83-.31,1.22-.45.12-.07.24-.14.33-.19-.05.05-.11.09-.18.14.61-.24,1.21-.53,1.91-1.14,1.77-.64,3.39-1.91,5.07-3.17,1.67-1.24,3.45-2.66,5.45-3.32-.58.25-1.34.68-1.46.96,2.91-1.92,6.13-3.16,7.81-4.67l-.33-.32c1.03-.78,1.95-1.47,2.83-2.1.22-.16.44-.31.65-.46.23-.15.37-.28.79-.48.72-.36,1.44-.71,2.16-1.07.05-.2.1-.41.16-.59.27-.03.55-.05.9,0,.32.06.61.15.94.31.38.14.49.34.72.52.21.19.43.38.65.57.89.78,1.86,1.63,2.79,2.45,1.87,1.67,3.59,3.34,3.97,4.42.81.2,2.88,2.81,4.2,3.83l.05.57c1.5,1.55,2.58,2.35,3.6,3.13,1.33,1.79,2.92,3.19,4.51,4.47,1.6,1.28,3.18,2.47,4.63,3.72l-.05.11,3.14,2.29c-1-.39.74.31,1.57,1.13,1.05.66,2.53,2.01,3.51,3.13l1.91,1.58c-2.3-1.54-.21.56-.37,1l1.45.72c.36.57-1.01-.37-.17.44.49.24,1.33.86,2.19,1.46.87.57,1.75,1.11,2.28,1.23-.05-.18-.29-.5-.6-.85-.12-.06-.11-.06-.03-.03-.03-.03-.05-.05-.07-.08.04.04.05.05.1.09.13.05.35.12.45.12,1.49,1.28,1.04.69,1.11.49,1.33,1.91,2.61,2.3,3.45,3.99-1.26-2.15,4.05,3.12,3.45,1.54.89,1.58.88.72,1.35,1.86-1.73-1.59-3.97-2.49-5.66-3.41l1.21,1.47c-1.45-.11-3.11-2.79-4.15-3.25.7.31,1.91,1.48,1.85,1.66v-.79c-1.95-1.82-3.93-2.71-5.59-3.65,1.25,1.28-1.9-1.08-1.18.07l1.14.83c.11.17.07.22-.04.2,1.95,1.58,3.91,3.12,5.9,4.65l-.74-.66,1.12.91.12.14c1.85,1.42,3.72,2.83,5.59,4.23.61-.23,3.31,1.51,2.84.61.85.88.28.9,2.41,2.21,1.49.65-1.17-1.66-1.57-2.23,1.65.93,1.75.79,1.89.69.82,1.47,1.04,3.14-.42,2.53.69.5,1.38,1.01,2.08,1.51-.37-.39.28-.08,1.07.47l-.07.22s-.08-.05-.12-.07c5.58,3.99,11.25,7.85,17,11.59,5.92,3.85,11.93,7.54,18.03,11.1,6,3.5,12.07,6.87,18.25,10.04,1.02.52,2.03,1.06,3.05,1.58.2.11.42.19.53.43-.06.39-.35.66-.57.96-.7.95-1.41,1.9-2.12,2.84,1.02-.52,1.97-1.01,1.63.12l.82-1.28c.22.79-2.86,3.8-2.91,4.88ZM161.81,156.89c.82.61,1.65,1.21,2.47,1.82-.78-.83-1.76-1.49-2.47-1.82ZM161.26,156.46c-.05-.03-.1-.06-.15-.09.04.03.09.07.13.1,0,0,.02,0,.02-.01ZM141.67,138.15s.04.01.07.02c-.68-.67-1-1.04-.07-.02ZM127.06,128.61c1.94,1.72,3.87,3.45,5.83,5.14,1.02.88,2.06,1.74,3.09,2.62-.25-.26-.45-.48-.56-.65.59.7,1.95,1.68,2.68,2.05l-1.43-1.54c1.31,1.07,1.96,2.37,4.03,3.8-.08-.56,1.66.17.54-1.44-3.26-3.53-3.65-1.75-7.94-5.58-.48-.26,1.32.32-1.12-1.55-2.06-1.48-3.92-2.49-5.12-2.85ZM115.86,118.35c.18.17.36.34.54.52.43.4.86.8,1.28,1.2-.09-.23-.19-.58-.01-.62-.53-.38-1.19-.78-1.81-1.09ZM104.25,114.37c.81-.52,1.62-1.04,2.43-1.56.02-.01.04-.03.06-.04,0-.3.02-.6.06-.91.1.23.19.46.28.7.38-.24.76-.48,1.14-.71.49-.3.53-.29.98.13.08.08.16.16.25.24.05.04.09.09.14.13,0-.11-.05-.26-.16-.46-.08-.13-.2-.31-.37-.5-.09-.09-.19-.19-.32-.22-.13-.02-.26,0-.39.04-.52.16-1.18.42-1.86.67-1.2.47-2.19.91-2.35.97-.23.42-.15.99.12,1.52ZM87.92,124.74c1.32-.82,2.64-1.64,3.95-2.47.94-1.23,1.76-2.39,2.19-3.13l-2.13,1.8-.76.07c-1.37,1.08-2.45,2.47-3.25,3.72ZM70.72,133.75c0-.07.03-.16.08-.25-.44.27-.16.17-.08.25ZM63.74,139.1c.65-.37,1.3-.74,1.94-1.1-.28-.25-.53-.49-.48-.77l-1.47,1.88ZM22.52,159.25c.33-.05.83-.07,1.41-.1.23-.09.46-.19.69-.29.24-.17.47-.33.68-.48-.09.09-.19.21-.28.31.51-.21,1.03-.43,1.54-.65-.05-.11-.27-.15-.74-.05-.14.11-.32.24-.51.38.41-.46.64-.8.22-.73l-3,1.6ZM131.89,247.73l.56.1c.35-.16.69-.3-.56-.1ZM155.98,148.75l-1.36-.91c.71.52.89.79,1.2,1.13.03-.1-.09-.36.16-.22ZM155.98,148.75l.16.1c-.06-.05-.11-.08-.16-.1ZM158.4,152.87c-.06-.05-.12-.09-.18-.14.64-.22-.55-.9-1.73-1.59-.13.41.86,1,1.91,1.72ZM159.58,153.76c.26-.09-.35-.33-.94-.71.32.23.65.46.94.71ZM147.56,142.4c.85.03-3.52-2.07-.78-.18.4.46.62-.16.78.18ZM155.62,152.05l.87.8-.06-.68-.81-.12ZM148.72,146.37l1.53,1.36c.03-.08.26.04.54.2-.99-.79-2.02-1.71-2.07-1.56ZM152.14,148.87c-.28-.21-.9-.67-1.35-.94.51.41,1.01.78,1.35.94ZM130.87,131.82c.48.26,1.14.76,1,.41l-1.77-1.37c-.28-.02.1.46.77.96ZM223.69,201.15l1.22-1.25-.95.69-.27.57ZM225.31,197.86c-.08.08-.16.15-.23.19l.54.04.18.07c-.02-.14.06-.37.17-.72.11-.34.24-.81.22-1.31-.05.41-.26.93-.47,1.22-.21.31-.35.46-.41.51Z" fill="#a6a6a6"/></svg>